<svg width="42" height="60" viewBox="0 0 42 60" fill="none" xmlns="http://www.w3.org/2000/svg">
<path d="M4.23174 46.636C5.14374 46.636 5.93174 46.808 6.59574 47.152C7.26774 47.488 7.77974 47.972 8.13174 48.604C8.49174 49.236 8.67174 49.98 8.67174 50.836C8.67174 51.692 8.49174 52.436 8.13174 53.068C7.77974 53.692 7.26774 54.172 6.59574 54.508C5.93174 54.836 5.14374 55 4.23174 55H1.62774V46.636H4.23174ZM4.23174 54.1C5.31174 54.1 6.13574 53.816 6.70374 53.248C7.27174 52.672 7.55574 51.868 7.55574 50.836C7.55574 49.796 7.26774 48.984 6.69174 48.4C6.12374 47.816 5.30374 47.524 4.23174 47.524H2.71974V54.1H4.23174ZM16.1121 51.46C16.1121 51.668 16.1001 51.888 16.0761 52.12H10.8201C10.8601 52.768 11.0801 53.276 11.4801 53.644C11.8881 54.004 12.3801 54.184 12.9561 54.184C13.4281 54.184 13.8201 54.076 14.1321 53.86C14.4521 53.636 14.6761 53.34 14.8041 52.972H15.9801C15.8041 53.604 15.4521 54.12 14.9241 54.52C14.3961 54.912 13.7401 55.108 12.9561 55.108C12.3321 55.108 11.7721 54.968 11.2761 54.688C10.7881 54.408 10.4041 54.012 10.1241 53.5C9.84411 52.98 9.70411 52.38 9.70411 51.7C9.70411 51.02 9.84011 50.424 10.1121 49.912C10.3841 49.4 10.7641 49.008 11.2521 48.736C11.7481 48.456 12.3161 48.316 12.9561 48.316C13.5801 48.316 14.1321 48.452 14.6121 48.724C15.0921 48.996 15.4601 49.372 15.7161 49.852C15.9801 50.324 16.1121 50.86 16.1121 51.46ZM14.9841 51.232C14.9841 50.816 14.8921 50.46 14.7081 50.164C14.5241 49.86 14.2721 49.632 13.9521 49.48C13.6401 49.32 13.2921 49.24 12.9081 49.24C12.3561 49.24 11.8841 49.416 11.4921 49.768C11.1081 50.12 10.8881 50.608 10.8321 51.232H14.9841ZM18.6455 46.12V55H17.5535V46.12H18.6455ZM26.5066 51.46C26.5066 51.668 26.4946 51.888 26.4706 52.12H21.2146C21.2546 52.768 21.4746 53.276 21.8746 53.644C22.2826 54.004 22.7746 54.184 23.3506 54.184C23.8226 54.184 24.2146 54.076 24.5266 53.86C24.8466 53.636 25.0706 53.34 25.1986 52.972H26.3746C26.1986 53.604 25.8466 54.12 25.3186 54.52C24.7906 54.912 24.1346 55.108 23.3506 55.108C22.7266 55.108 22.1666 54.968 21.6706 54.688C21.1826 54.408 20.7986 54.012 20.5186 53.5C20.2386 52.98 20.0986 52.38 20.0986 51.7C20.0986 51.02 20.2346 50.424 20.5066 49.912C20.7786 49.4 21.1586 49.008 21.6466 48.736C22.1426 48.456 22.7106 48.316 23.3506 48.316C23.9746 48.316 24.5266 48.452 25.0066 48.724C25.4866 48.996 25.8546 49.372 26.1106 49.852C26.3746 50.324 26.5066 50.86 26.5066 51.46ZM25.3786 51.232C25.3786 50.816 25.2866 50.46 25.1026 50.164C24.9186 49.86 24.6666 49.632 24.3466 49.48C24.0346 49.32 23.6866 49.24 23.3026 49.24C22.7506 49.24 22.2786 49.416 21.8866 49.768C21.5026 50.12 21.2826 50.608 21.2266 51.232H25.3786ZM29.28 49.324V53.2C29.28 53.52 29.348 53.748 29.484 53.884C29.62 54.012 29.856 54.076 30.192 54.076H30.996V55H30.012C29.404 55 28.948 54.86 28.644 54.58C28.34 54.3 28.188 53.84 28.188 53.2V49.324H27.336V48.424H28.188V46.768H29.28V48.424H30.996V49.324H29.28ZM38.3191 51.46C38.3191 51.668 38.3071 51.888 38.2831 52.12H33.0271C33.0671 52.768 33.2871 53.276 33.6871 53.644C34.0951 54.004 34.5871 54.184 35.1631 54.184C35.6351 54.184 36.0271 54.076 36.3391 53.86C36.6591 53.636 36.8831 53.34 37.0111 52.972H38.1871C38.0111 53.604 37.6591 54.12 37.1311 54.52C36.6031 54.912 35.9471 55.108 35.1631 55.108C34.5391 55.108 33.9791 54.968 33.4831 54.688C32.9951 54.408 32.6111 54.012 32.3311 53.5C32.0511 52.98 31.9111 52.38 31.9111 51.7C31.9111 51.02 32.0471 50.424 32.3191 49.912C32.5911 49.4 32.9711 49.008 33.4591 48.736C33.9551 48.456 34.5231 48.316 35.1631 48.316C35.7871 48.316 36.3391 48.452 36.8191 48.724C37.2991 48.996 37.6671 49.372 37.9231 49.852C38.1871 50.324 38.3191 50.86 38.3191 51.46ZM37.1911 51.232C37.1911 50.816 37.0991 50.46 36.9151 50.164C36.7311 49.86 36.4791 49.632 36.1591 49.48C35.8471 49.32 35.4991 49.24 35.1151 49.24C34.5631 49.24 34.0911 49.416 33.6991 49.768C33.3151 50.12 33.0951 50.608 33.0391 51.232H37.1911Z" fill="#424F40"/>
<path d="M39.0742 2.38889H30.2594L27.7409 0H15.1483L12.6298 2.38889H3.81494V7.16667H39.0742M6.33346 38.2222C6.33346 39.4894 6.86415 40.7046 7.80877 41.6006C8.7534 42.4966 10.0346 43 11.3705 43H31.5186C32.8545 43 34.1357 42.4966 35.0804 41.6006C36.025 40.7046 36.5557 39.4894 36.5557 38.2222V9.55556H6.33346V38.2222Z" fill="#D6E8D1"/>
</svg>
