<svg width="48" height="62" viewBox="0 0 48 62" fill="none" xmlns="http://www.w3.org/2000/svg">
<path d="M15.0901 49.524V52.32H18.1381V53.22H15.0901V56.1H18.4981V57H13.9981V48.624H18.4981V49.524H15.0901ZM19.7424 53.688C19.7424 53.016 19.8784 52.428 20.1504 51.924C20.4224 51.412 20.7944 51.016 21.2664 50.736C21.7464 50.456 22.2824 50.316 22.8744 50.316C23.3864 50.316 23.8624 50.436 24.3024 50.676C24.7424 50.908 25.0784 51.216 25.3104 51.6V48.12H26.4144V57H25.3104V55.764C25.0944 56.156 24.7744 56.48 24.3504 56.736C23.9264 56.984 23.4304 57.108 22.8624 57.108C22.2784 57.108 21.7464 56.964 21.2664 56.676C20.7944 56.388 20.4224 55.984 20.1504 55.464C19.8784 54.944 19.7424 54.352 19.7424 53.688ZM25.3104 53.7C25.3104 53.204 25.2104 52.772 25.0104 52.404C24.8104 52.036 24.5384 51.756 24.1944 51.564C23.8584 51.364 23.4864 51.264 23.0784 51.264C22.6704 51.264 22.2984 51.36 21.9624 51.552C21.6264 51.744 21.3584 52.024 21.1584 52.392C20.9584 52.76 20.8584 53.192 20.8584 53.688C20.8584 54.192 20.9584 54.632 21.1584 55.008C21.3584 55.376 21.6264 55.66 21.9624 55.86C22.2984 56.052 22.6704 56.148 23.0784 56.148C23.4864 56.148 23.8584 56.052 24.1944 55.86C24.5384 55.66 24.8104 55.376 25.0104 55.008C25.2104 54.632 25.3104 54.196 25.3104 53.7ZM28.8238 49.356C28.6158 49.356 28.4398 49.284 28.2958 49.14C28.1518 48.996 28.0798 48.82 28.0798 48.612C28.0798 48.404 28.1518 48.228 28.2958 48.084C28.4398 47.94 28.6158 47.868 28.8238 47.868C29.0238 47.868 29.1918 47.94 29.3278 48.084C29.4718 48.228 29.5438 48.404 29.5438 48.612C29.5438 48.82 29.4718 48.996 29.3278 49.14C29.1918 49.284 29.0238 49.356 28.8238 49.356ZM29.3518 50.424V57H28.2598V50.424H29.3518ZM32.5449 51.324V55.2C32.5449 55.52 32.6129 55.748 32.7489 55.884C32.8849 56.012 33.1209 56.076 33.4569 56.076H34.2609V57H33.2769C32.6689 57 32.2129 56.86 31.9089 56.58C31.6049 56.3 31.4529 55.84 31.4529 55.2V51.324H30.6009V50.424H31.4529V48.768H32.5449V50.424H34.2609V51.324H32.5449Z" fill="#424F40"/>
<path d="M33.6806 0L47.2963 13.1559L43.3708 16.8882L29.7826 3.78529L33.6806 0ZM0.629639 43.0941L18.4728 25.9676C18.1983 25.1471 18.3904 24.1147 19.1041 23.4265C20.1747 22.3941 21.9316 22.3941 23.0022 23.4265C24.0728 24.4853 24.0728 26.1529 23.0022 27.1853C22.2885 27.8735 21.2179 28.0588 20.3669 27.7941L2.60611 45L31.7316 35.6029L41.4218 18.7676L27.861 5.66471L10.3747 15.0088L0.629639 43.0941Z" fill="#D6E8D1"/>
</svg>
