<svg width="33" height="23" viewBox="0 0 33 23" fill="none" xmlns="http://www.w3.org/2000/svg">
<path d="M16.5 6.9C15.3065 6.9 14.1619 7.38464 13.318 8.24731C12.4741 9.10998 12 10.28 12 11.5C12 12.72 12.4741 13.89 13.318 14.7527C14.1619 15.6154 15.3065 16.1 16.5 16.1C17.6935 16.1 18.8381 15.6154 19.682 14.7527C20.5259 13.89 21 12.72 21 11.5C21 10.28 20.5259 9.10998 19.682 8.24731C18.8381 7.38464 17.6935 6.9 16.5 6.9ZM16.5 19.1667C14.5109 19.1667 12.6032 18.3589 11.1967 16.9212C9.79018 15.4834 9 13.5333 9 11.5C9 9.46667 9.79018 7.51663 11.1967 6.07885C12.6032 4.64107 14.5109 3.83333 16.5 3.83333C18.4891 3.83333 20.3968 4.64107 21.8033 6.07885C23.2098 7.51663 24 9.46667 24 11.5C24 13.5333 23.2098 15.4834 21.8033 16.9212C20.3968 18.3589 18.4891 19.1667 16.5 19.1667ZM16.5 0C9 0 2.595 4.76867 0 11.5C2.595 18.2313 9 23 16.5 23C24 23 30.405 18.2313 33 11.5C30.405 4.76867 24 0 16.5 0Z" fill="#E6F5E1"/>
</svg>
