<svg width="33" height="29" viewBox="0 0 33 29" fill="none" xmlns="http://www.w3.org/2000/svg">
<path d="M16.245 9.1579L21 13.9811V13.7368C21 12.5224 20.5259 11.3578 19.682 10.499C18.8381 9.64032 17.6935 9.1579 16.5 9.1579H16.245ZM9.795 10.3789L12.12 12.7447C12.045 13.0653 12 13.3858 12 13.7368C12 14.9513 12.4741 16.1159 13.318 16.9746C14.1619 17.8334 15.3065 18.3158 16.5 18.3158C16.83 18.3158 17.16 18.27 17.475 18.1937L19.8 20.5595C18.795 21.0632 17.685 21.3684 16.5 21.3684C14.5109 21.3684 12.6032 20.5644 11.1967 19.1332C9.79018 17.702 9 15.7609 9 13.7368C9 12.5311 9.3 11.4016 9.795 10.3789ZM1.5 1.93842L4.92 5.41842L5.595 6.10526C3.12 8.08947 1.17 10.6842 0 13.7368C2.595 20.4374 9 25.1842 16.5 25.1842C18.825 25.1842 21.045 24.7263 23.07 23.9021L23.715 24.5432L28.095 29L30 27.0616L3.405 0M16.5 6.10526C18.4891 6.10526 20.3968 6.9093 21.8033 8.3405C23.2098 9.7717 24 11.7128 24 13.7368C24 14.7137 23.805 15.66 23.46 16.5147L27.855 20.9868C30.105 19.0789 31.905 16.5758 33 13.7368C30.405 7.03632 24 2.28947 16.5 2.28947C14.4 2.28947 12.39 2.67105 10.5 3.35789L13.755 6.63947C14.61 6.30368 15.525 6.10526 16.5 6.10526Z" fill="#E6F5E1"/>
</svg>
