<svg width="124" height="124" viewBox="0 0 124 124" fill="none" xmlns="http://www.w3.org/2000/svg">
<g clip-path="url(#clip0_48_591)">
<rect width="124" height="124" rx="62" fill="#424F40"/>
<g filter="url(#filter0_f_48_591)">
<rect x="-25" y="58" width="116.506" height="71" fill="#424F40"/>
<path d="M33 32L58.987 79L79 39.6593H33V32Z" fill="#414740"/>
<rect width="113.105" height="30.728" transform="matrix(-0.938076 -0.346431 0.472944 -0.881093 132.384 70.2571)" fill="#889B83"/>
</g>
</g>
<path d="M102.495 63.3964H98.4459C98.4459 47.7246 85.7709 35.0495 70.0991 35.0495H66.0496V29.9066C67.2811 29.1956 68.3037 28.1728 69.0145 26.9412C69.7254 25.7096 70.0995 24.3125 70.0991 22.8905C70.0987 21.4684 69.724 20.0716 69.0125 18.8403C68.301 17.6091 67.2778 16.5868 66.0459 15.8765C64.8141 15.1661 63.4168 14.7925 61.9948 14.7935C60.5728 14.7944 59.176 15.1697 57.9451 15.8816C56.7141 16.5936 55.6923 17.6171 54.9823 18.8493C54.2724 20.0815 53.8994 21.4788 53.9009 22.9009C53.9009 25.8975 55.5207 28.5297 57.9505 29.9066V35.0495H53.9009C38.2291 35.0495 25.5541 47.7246 25.5541 63.3964H21.5045C19.2773 63.3964 17.455 65.2187 17.455 67.4459V79.5946C17.455 81.8218 19.2773 83.6441 21.5045 83.6441H25.5541V87.6936C25.5541 89.8417 26.4074 91.9017 27.9262 93.4206C29.4451 94.9395 31.5051 95.7928 33.6532 95.7928H90.3468C94.8419 95.7928 98.4459 92.1887 98.4459 87.6936V83.6441H102.495C104.723 83.6441 106.545 81.8218 106.545 79.5946V67.4459C106.545 65.2187 104.723 63.3964 102.495 63.3964ZM98.4459 75.545H90.3468V87.6936H33.6532V75.545H25.5541V71.4955H33.6532V63.3964C33.6532 52.2196 42.7241 43.1486 53.9009 43.1486H70.0991C81.2759 43.1486 90.3468 52.2196 90.3468 63.3964V71.4955H98.4459V75.545ZM56.7356 63.3964C58.3554 64.9757 58.3554 67.6484 56.7356 69.2682L53.7794 72.2244L47.8266 78.1772L38.9176 69.2682C37.2978 67.6484 37.2978 64.9757 38.9176 63.3964C40.5779 61.6955 43.2101 61.6955 44.8704 63.3964L47.8266 66.312L50.7827 63.3964C52.4431 61.6955 55.0753 61.6955 56.7356 63.3964ZM85.0824 63.3964C86.7023 64.9757 86.7023 67.6484 85.0824 69.2682L82.1263 72.2244L76.1734 78.1772L67.2644 69.2682C65.6446 67.6484 65.6446 64.9757 67.2644 63.3964C68.9247 61.6955 71.5569 61.6955 73.2173 63.3964L76.1734 66.312L79.1296 63.3964C80.7899 61.6955 83.4221 61.6955 85.0824 63.3964Z" fill="white"/>
<defs>
<filter id="filter0_f_48_591" x="-70" y="-41" width="261.917" height="215" filterUnits="userSpaceOnUse" color-interpolation-filters="sRGB">
<feFlood flood-opacity="0" result="BackgroundImageFix"/>
<feBlend mode="normal" in="SourceGraphic" in2="BackgroundImageFix" result="shape"/>
<feGaussianBlur stdDeviation="22.5" result="effect1_foregroundBlur_48_591"/>
</filter>
<clipPath id="clip0_48_591">
<rect width="124" height="124" rx="62" fill="white"/>
</clipPath>
</defs>
</svg>
