<svg width="51" height="48" viewBox="0 0 51 48" fill="none" xmlns="http://www.w3.org/2000/svg">
<path d="M20.1875 6.375C23.8508 6.375 27.3641 7.83024 29.9544 10.4206C32.5448 13.0109 34 16.5242 34 20.1875C34 23.6087 32.7462 26.7537 30.685 29.1762L31.2588 29.75H32.9375L43.5625 40.375L40.375 43.5625L29.75 32.9375V31.2588L29.1762 30.685C26.6699 32.8244 23.4828 33.9998 20.1875 34C16.5242 34 13.0109 32.5448 10.4206 29.9544C7.83024 27.3641 6.375 23.8508 6.375 20.1875C6.375 16.5242 7.83024 13.0109 10.4206 10.4206C13.0109 7.83024 16.5242 6.375 20.1875 6.375ZM20.1875 10.625C14.875 10.625 10.625 14.875 10.625 20.1875C10.625 25.5 14.875 29.75 20.1875 29.75C25.5 29.75 29.75 25.5 29.75 20.1875C29.75 14.875 25.5 10.625 20.1875 10.625Z" fill="#E6F5E1"/>
</svg>
