<svg width="31" height="25" viewBox="0 0 31 25" fill="none" xmlns="http://www.w3.org/2000/svg">
<path d="M15.5 14.0417L0.0833435 4.42166V3.24999C0.0833435 1.53874 1.45543 0.166656 3.16668 0.166656H27.8333C28.6511 0.166656 29.4354 0.491507 30.0136 1.06974C30.5918 1.64798 30.9167 2.43224 30.9167 3.24999V4.40624L15.5 14.0417ZM30.9167 21.75C30.9167 22.5677 30.5918 23.352 30.0136 23.9302C29.4354 24.5085 28.6511 24.8333 27.8333 24.8333H3.16668C2.34893 24.8333 1.56467 24.5085 0.986431 23.9302C0.408194 23.352 0.0833435 22.5677 0.0833435 21.75V8.04457L3.16668 9.97166V21.75H27.8333V9.97166L30.9167 8.04457V21.75Z" fill="#E6F5E1"/>
</svg>
