<svg width="29" height="29" viewBox="0 0 29 29" fill="none" xmlns="http://www.w3.org/2000/svg">
<path d="M14.5 0.166656C16.4007 0.166656 18.2235 0.921714 19.5676 2.26572C20.9116 3.60973 21.6666 5.4326 21.6666 7.33332C21.6666 9.23404 20.9116 11.0569 19.5676 12.4009C18.2235 13.7449 16.4007 14.5 14.5 14.5C12.5992 14.5 10.7764 13.7449 9.43236 12.4009C8.08835 11.0569 7.33329 9.23404 7.33329 7.33332C7.33329 5.4326 8.08835 3.60973 9.43236 2.26572C10.7764 0.921714 12.5992 0.166656 14.5 0.166656ZM14.5 18.0833C22.4191 18.0833 28.8333 21.2904 28.8333 25.25V28.8333H0.166626V25.25C0.166626 21.2904 6.58079 18.0833 14.5 18.0833Z" fill="#E6F5E1"/>
</svg>
