<svg width="59" height="58" viewBox="0 0 59 58" fill="none" xmlns="http://www.w3.org/2000/svg">
<path d="M21.4656 44.636L18.3096 53H17.0496L13.8936 44.636H15.0576L17.6856 51.848L20.3136 44.636H21.4656ZM23.227 45.356C23.019 45.356 22.843 45.284 22.699 45.14C22.555 44.996 22.483 44.82 22.483 44.612C22.483 44.404 22.555 44.228 22.699 44.084C22.843 43.94 23.019 43.868 23.227 43.868C23.427 43.868 23.595 43.94 23.731 44.084C23.875 44.228 23.947 44.404 23.947 44.612C23.947 44.82 23.875 44.996 23.731 45.14C23.595 45.284 23.427 45.356 23.227 45.356ZM23.755 46.424V53H22.663V46.424H23.755ZM31.6161 49.46C31.6161 49.668 31.6041 49.888 31.5801 50.12H26.3241C26.3641 50.768 26.5841 51.276 26.9841 51.644C27.3921 52.004 27.8841 52.184 28.4601 52.184C28.9321 52.184 29.3241 52.076 29.6361 51.86C29.9561 51.636 30.1801 51.34 30.3081 50.972H31.4841C31.3081 51.604 30.9561 52.12 30.4281 52.52C29.9001 52.912 29.2441 53.108 28.4601 53.108C27.8361 53.108 27.2761 52.968 26.7801 52.688C26.2921 52.408 25.9081 52.012 25.6281 51.5C25.3481 50.98 25.2081 50.38 25.2081 49.7C25.2081 49.02 25.3441 48.424 25.6161 47.912C25.8881 47.4 26.2681 47.008 26.7561 46.736C27.2521 46.456 27.8201 46.316 28.4601 46.316C29.0841 46.316 29.6361 46.452 30.1161 46.724C30.5961 46.996 30.9641 47.372 31.2201 47.852C31.4841 48.324 31.6161 48.86 31.6161 49.46ZM30.4881 49.232C30.4881 48.816 30.3961 48.46 30.2121 48.164C30.0281 47.86 29.7761 47.632 29.4561 47.48C29.1441 47.32 28.7961 47.24 28.4121 47.24C27.8601 47.24 27.3881 47.416 26.9961 47.768C26.6121 48.12 26.3921 48.608 26.3361 49.232H30.4881ZM41.8175 46.424L39.7655 53H38.6375L37.0535 47.78L35.4695 53H34.3415L32.2775 46.424H33.3935L34.9055 51.944L36.5375 46.424H37.6535L39.2495 51.956L40.7375 46.424H41.8175Z" fill="#424F40"/>
<path d="M29.1852 11.7C27.0849 11.7 25.0707 12.5218 23.5855 13.9846C22.1004 15.4473 21.266 17.4313 21.266 19.5C21.266 21.5687 22.1004 23.5526 23.5855 25.0154C25.0707 26.4782 27.0849 27.3 29.1852 27.3C31.2855 27.3 33.2998 26.4782 34.7849 25.0154C36.2701 23.5526 37.1044 21.5687 37.1044 19.5C37.1044 17.4313 36.2701 15.4473 34.7849 13.9846C33.2998 12.5218 31.2855 11.7 29.1852 11.7ZM29.1852 32.5C25.6847 32.5 22.3276 31.1304 19.8524 28.6924C17.3771 26.2544 15.9866 22.9478 15.9866 19.5C15.9866 16.0522 17.3771 12.7456 19.8524 10.3076C22.3276 7.86964 25.6847 6.5 29.1852 6.5C32.6857 6.5 36.0429 7.86964 38.5181 10.3076C40.9933 12.7456 42.3839 16.0522 42.3839 19.5C42.3839 22.9478 40.9933 26.2544 38.5181 28.6924C36.0429 31.1304 32.6857 32.5 29.1852 32.5ZM29.1852 0C15.9866 0 4.71493 8.086 0.148193 19.5C4.71493 30.914 15.9866 39 29.1852 39C42.3839 39 53.6555 30.914 58.2223 19.5C53.6555 8.086 42.3839 0 29.1852 0Z" fill="#D6E8D1"/>
</svg>
