<svg width="35" height="35" viewBox="0 0 35 35" fill="none" xmlns="http://www.w3.org/2000/svg">
<path d="M17.5 4.375C11.0542 4.375 5.83337 6.98542 5.83337 10.2083C5.83337 13.4313 11.0542 16.0417 17.5 16.0417C23.9459 16.0417 29.1667 13.4313 29.1667 10.2083C29.1667 6.98542 23.9459 4.375 17.5 4.375ZM5.83337 13.125V17.5C5.83337 20.7229 11.0542 23.3333 17.5 23.3333C23.9459 23.3333 29.1667 20.7229 29.1667 17.5V13.125C29.1667 16.3479 23.9459 18.9583 17.5 18.9583C11.0542 18.9583 5.83337 16.3479 5.83337 13.125ZM5.83337 20.4167V24.7917C5.83337 28.0146 11.0542 30.625 17.5 30.625C23.9459 30.625 29.1667 28.0146 29.1667 24.7917V20.4167C29.1667 23.6396 23.9459 26.25 17.5 26.25C11.0542 26.25 5.83337 23.6396 5.83337 20.4167Z" fill="#E6F5E1"/>
</svg>
