<svg width="38" height="38" viewBox="0 0 38 38" fill="none" xmlns="http://www.w3.org/2000/svg">
<path d="M9.50004 3.16663H28.5C29.3399 3.16663 30.1453 3.50026 30.7392 4.09412C31.3331 4.68799 31.6667 5.49344 31.6667 6.33329V31.6666C31.6667 32.5065 31.3331 33.3119 30.7392 33.9058C30.1453 34.4997 29.3399 34.8333 28.5 34.8333H9.50004C8.66019 34.8333 7.85473 34.4997 7.26087 33.9058C6.667 33.3119 6.33337 32.5065 6.33337 31.6666V6.33329C6.33337 5.49344 6.667 4.68799 7.26087 4.09412C7.85473 3.50026 8.66019 3.16663 9.50004 3.16663ZM19 6.33329C16.4805 6.33329 14.0641 7.33418 12.2825 9.11578C10.5009 10.8974 9.50004 13.3137 9.50004 15.8333C9.50004 21.0741 13.7592 25.3333 19.1584 25.3333L17.765 21.8025C17.5579 21.4365 17.5032 21.0036 17.6128 20.5977C17.7225 20.1917 17.9876 19.8452 18.3509 19.6333L19.7125 18.8416C20.0785 18.6344 20.5113 18.5798 20.9173 18.6894C21.3233 18.799 21.6698 19.0642 21.8817 19.4275L24.9217 23.2591C26.0396 22.3714 26.9422 21.2423 27.5619 19.9563C28.1815 18.6703 28.5023 17.2608 28.5 15.8333C28.5 13.3137 27.4992 10.8974 25.7176 9.11578C23.936 7.33418 21.5196 6.33329 19 6.33329ZM19 14.25C19.42 14.25 19.8227 14.4168 20.1196 14.7137C20.4166 15.0106 20.5834 15.4134 20.5834 15.8333C20.5834 16.2532 20.4166 16.6559 20.1196 16.9529C19.8227 17.2498 19.42 17.4166 19 17.4166C18.5801 17.4166 18.1774 17.2498 17.8805 16.9529C17.5835 16.6559 17.4167 16.2532 17.4167 15.8333C17.4167 15.4134 17.5835 15.0106 17.8805 14.7137C18.1774 14.4168 18.5801 14.25 19 14.25ZM11.0834 28.5C10.6634 28.5 10.2607 28.6668 9.96379 28.9637C9.66686 29.2606 9.50004 29.6634 9.50004 30.0833C9.50004 30.5032 9.66686 30.9059 9.96379 31.2029C10.2607 31.4998 10.6634 31.6666 11.0834 31.6666C11.5033 31.6666 11.906 31.4998 12.203 31.2029C12.4999 30.9059 12.6667 30.5032 12.6667 30.0833C12.6667 29.6634 12.4999 29.2606 12.203 28.9637C11.906 28.6668 11.5033 28.5 11.0834 28.5ZM19.1425 21.0108L23.085 31.0016L27.1859 28.6266L20.5042 20.2191L19.1425 21.0108Z" fill="#E6F5E1"/>
</svg>
